<svg width="52" height="53" viewBox="0 0 52 53" fill="none" xmlns="http://www.w3.org/2000/svg">
<path d="M20.1186 46.9972C20.3377 44.0162 17.3129 41.3643 13.3625 41.0739C9.41211 40.7836 6.03207 42.9647 5.81297 45.9457C5.59387 48.9267 8.61869 51.5786 12.5691 51.869C16.5195 52.1593 19.8995 49.9781 20.1186 46.9972Z" stroke="#3A3734" stroke-width="2" stroke-miterlimit="10" stroke-linecap="round" stroke-linejoin="round"/>
<path d="M6.23047 45.6633C6.23047 45.6633 10.3886 47.9404 12.6106 46.8184C14.8437 45.7073 16.4167 46.1803 19.9808 47.7974" stroke="#3A3734" stroke-width="2" stroke-miterlimit="10" stroke-linecap="round" stroke-linejoin="round"/>
<path d="M12.6106 40.9221C11.7635 38.403 13.4356 35.3999 16.5597 33.6179C20.0028 31.6488 23.9849 32.1659 25.4699 34.7619C26.9549 37.358 25.3709 41.0541 21.9278 43.0231C21.0698 43.5182 20.1788 43.8482 19.2987 44.0352" stroke="#3A3734" stroke-width="2" stroke-miterlimit="10" stroke-linecap="round" stroke-linejoin="round"/>
<path d="M25.2939 35.2129C25.2939 35.2129 20.5747 35.6529 19.3537 37.82C18.1327 39.987 16.7136 40.394 12.8525 41.054" stroke="#3A3734" stroke-width="2" stroke-miterlimit="10" stroke-linecap="round" stroke-linejoin="round"/>
<path d="M11.6759 37.6387C14.8402 35.8296 16.2982 32.4263 14.9324 30.0372C13.5665 27.6481 9.89399 27.1779 6.72961 28.987C3.56523 30.7961 2.10726 34.1994 3.47313 36.5886C4.839 38.9777 8.51149 39.4478 11.6759 37.6387Z" stroke="#3A3734" stroke-width="2" stroke-miterlimit="10" stroke-linecap="round" stroke-linejoin="round"/>
<path d="M14.7777 30.4609C14.7777 30.4609 10.4326 30.8569 9.31053 32.859C8.1775 34.8611 6.72546 35.3121 3.17236 35.9061" stroke="#3A3734" stroke-width="2" stroke-miterlimit="10" stroke-linecap="round" stroke-linejoin="round"/>
<path d="M9.06862 23.147C12.693 22.7573 15.3927 20.2231 15.0985 17.4867C14.8043 14.7503 11.6276 12.8479 8.00323 13.2376C4.37883 13.6272 1.67917 16.1614 1.97337 18.8978C2.26757 21.6343 5.44422 23.5367 9.06862 23.147Z" stroke="#3A3734" stroke-width="2" stroke-miterlimit="10" stroke-linecap="round" stroke-linejoin="round"/>
<path d="M14.7775 17.8105C14.7775 17.8105 10.6414 16.4355 8.80434 17.8215C6.96729 19.1966 5.46025 19.0315 1.96216 18.1625" stroke="#3A3734" stroke-width="2" stroke-miterlimit="10" stroke-linecap="round" stroke-linejoin="round"/>
<path d="M45.6728 47.034C47.8734 44.1281 47.8787 40.4255 45.6848 38.7641C43.4908 37.1026 39.9283 38.1115 37.7277 41.0174C35.5271 43.9233 35.5217 47.6259 37.7157 49.2874C39.9097 50.9488 43.4722 49.94 45.6728 47.034Z" stroke="#3A3734" stroke-width="2" stroke-miterlimit="10" stroke-linecap="round" stroke-linejoin="round"/>
<path d="M45.7103 39.2173C45.7103 39.2173 41.8712 41.2963 41.6182 43.5734C41.3652 45.8505 40.1992 46.8405 37.1741 48.7875" stroke="#3A3734" stroke-width="2" stroke-miterlimit="10" stroke-linecap="round" stroke-linejoin="round"/>
<path d="M6.90137 38.689L10.7405 41.252" stroke="#3A3734" stroke-width="2" stroke-miterlimit="10" stroke-linecap="round" stroke-linejoin="round"/>
<path d="M20.0578 47.4672L25.0409 50.8003L42.0144 31.2638C46.0515 25.2246 44.7205 18.5584 38.6813 14.5213L38.0763 14.1143C32.0371 10.0772 23.7979 11.7272 19.7718 17.7664L12.9736 27.9417" stroke="#3A3734" stroke-width="2" stroke-miterlimit="10" stroke-linecap="round" stroke-linejoin="round"/>
<path d="M6.90137 38.689L10.7405 41.252" stroke="#3A3734" stroke-width="2" stroke-miterlimit="10" stroke-linecap="round" stroke-linejoin="round"/>
<path d="M20.5418 47.7972L24.3039 50.3053L35.2712 33.8818C38.5163 29.0197 37.1963 22.3975 32.3341 19.1524L31.8391 18.8224C26.977 15.5773 20.3548 16.8974 17.1097 21.7595L12.9736 27.9527" stroke="#3A3734" stroke-width="2" stroke-miterlimit="10" stroke-linecap="round" stroke-linejoin="round"/>
<path d="M40.8922 16.1055C40.8922 16.1055 49.1424 9.06529 50.0774 6.17221C51.0124 3.27914 48.7244 1.7611 48.7244 1.7611C48.7244 1.7611 46.6013 0.0340528 44.1153 1.7831C41.6292 3.53215 37.3721 13.5094 37.3721 13.5094" stroke="#3A3734" stroke-width="2" stroke-miterlimit="10" stroke-linecap="round" stroke-linejoin="round"/>
</svg>
