<?xml version="1.0" encoding="UTF-8"?>
<svg xmlns="http://www.w3.org/2000/svg" xmlns:xlink="http://www.w3.org/1999/xlink" width="44px" height="44px" viewBox="0 0 44 44" version="1.1">
<g id="surface1">
<path style="fill:none;stroke-width:2;stroke-linecap:round;stroke-linejoin:round;stroke:rgb(22.745098%,21.568627%,20.392157%);stroke-opacity:1;stroke-miterlimit:10;" d="M 48.903587 8.886719 C 40.931286 10.74707 18.701172 25.90332 14.781605 40.126953 " transform="matrix(0.88,0,0,0.8,0,0)"/>
<path style="fill:none;stroke-width:2;stroke-linecap:round;stroke-linejoin:round;stroke:rgb(22.745098%,21.568627%,20.392157%);stroke-opacity:1;stroke-miterlimit:10;" d="M 12.606534 53.217773 C 16.219815 53.217773 19.149503 50.288086 19.149503 46.669922 C 19.149503 43.056641 16.219815 40.126953 12.606534 40.126953 C 8.988814 40.126953 6.059126 43.056641 6.059126 46.669922 C 6.059126 50.288086 8.988814 53.217773 12.606534 53.217773 Z M 12.606534 53.217773 " transform="matrix(0.88,0,0,0.8,0,0)"/>
<path style="fill:none;stroke-width:2;stroke-linecap:round;stroke-linejoin:round;stroke:rgb(22.745098%,21.568627%,20.392157%);stroke-opacity:1;stroke-miterlimit:10;" d="M 9.490412 47.905273 C 9.490412 47.905273 12.353516 47.529297 12.353516 50.058594 " transform="matrix(0.88,0,0,0.8,0,0)"/>
<path style="fill:none;stroke-width:2;stroke-linecap:round;stroke-linejoin:round;stroke:rgb(22.745098%,21.568627%,20.392157%);stroke-opacity:1;stroke-miterlimit:10;" d="M 27.401456 46.669922 C 31.014737 46.669922 33.944425 43.740234 33.944425 40.126953 C 33.944425 36.513672 31.014737 33.579102 27.401456 33.579102 C 23.783736 33.579102 20.854048 36.513672 20.854048 40.126953 C 20.854048 43.740234 23.783736 46.669922 27.401456 46.669922 Z M 27.401456 46.669922 " transform="matrix(0.88,0,0,0.8,0,0)"/>
<path style="fill:none;stroke-width:2;stroke-linecap:round;stroke-linejoin:round;stroke:rgb(22.745098%,21.568627%,20.392157%);stroke-opacity:1;stroke-miterlimit:10;" d="M 26.509233 43.349609 C 26.509233 43.349609 27.938565 40.839844 29.953835 42.358398 " transform="matrix(0.88,0,0,0.8,0,0)"/>
<path style="fill:none;stroke-width:2;stroke-linecap:round;stroke-linejoin:round;stroke:rgb(22.745098%,21.568627%,20.392157%);stroke-opacity:1;stroke-miterlimit:10;" d="M 7.546165 36.59668 C 11.159446 36.59668 14.089134 33.666992 14.089134 30.048828 C 14.089134 26.435547 11.159446 23.505859 7.546165 23.505859 C 3.928445 23.505859 0.998757 26.435547 0.998757 30.048828 C 0.998757 33.666992 3.928445 36.59668 7.546165 36.59668 Z M 7.546165 36.59668 " transform="matrix(0.88,0,0,0.8,0,0)"/>
<path style="fill:none;stroke-width:2;stroke-linecap:round;stroke-linejoin:round;stroke:rgb(22.745098%,21.568627%,20.392157%);stroke-opacity:1;stroke-miterlimit:10;" d="M 4.199219 29.863281 C 4.199219 29.863281 6.960227 30.722656 5.894886 33.022461 " transform="matrix(0.88,0,0,0.8,0,0)"/>
<path style="fill:none;stroke-width:2;stroke-linecap:round;stroke-linejoin:round;stroke:rgb(22.745098%,21.568627%,20.392157%);stroke-opacity:1;stroke-miterlimit:10;" d="M 13.880504 28.422852 C 13.880504 28.422852 17.511541 26.572266 21.537642 28.422852 C 21.537642 28.422852 24.991122 30.048828 25.088778 34.008789 " transform="matrix(0.88,0,0,0.8,0,0)"/>
<path style="fill:none;stroke-width:2;stroke-linecap:round;stroke-linejoin:round;stroke:rgb(22.745098%,21.568627%,20.392157%);stroke-opacity:1;stroke-miterlimit:10;" d="M 12.606534 14.648438 C 12.606534 14.648438 23.734908 14.145508 30.610795 19.643555 " transform="matrix(0.88,0,0,0.8,0,0)"/>
<path style="fill:none;stroke-width:2;stroke-linecap:round;stroke-linejoin:round;stroke:rgb(22.745098%,21.568627%,20.392157%);stroke-opacity:1;stroke-miterlimit:10;" d="M 26.509233 17.070312 C 26.509233 17.070312 22.49201 2.695312 3.102805 14.243164 C 3.102805 14.243164 13.472124 24.165039 25.958807 16.806641 " transform="matrix(0.88,0,0,0.8,0,0)"/>
<path style="fill:none;stroke-width:2;stroke-linecap:round;stroke-linejoin:round;stroke:rgb(22.745098%,21.568627%,20.392157%);stroke-opacity:1;stroke-miterlimit:10;" d="M 36.354759 16.103516 C 36.354759 16.103516 40.225497 22.65625 40.367543 29.257812 " transform="matrix(0.88,0,0,0.8,0,0)"/>
<path style="fill:none;stroke-width:2;stroke-linecap:round;stroke-linejoin:round;stroke:rgb(22.745098%,21.568627%,20.392157%);stroke-opacity:1;stroke-miterlimit:10;" d="M 38.805043 21.523438 C 38.805043 21.523438 30.610795 26.411133 40.367543 40.415039 C 40.367543 40.415039 50.554865 26.245117 38.805043 21.523438 Z M 38.805043 21.523438 " transform="matrix(0.88,0,0,0.8,0,0)"/>
<path style="fill:none;stroke-width:2;stroke-linecap:round;stroke-linejoin:round;stroke:rgb(22.745098%,21.568627%,20.392157%);stroke-opacity:1;stroke-miterlimit:10;" d="M 39.26669 13.452148 C 39.26669 13.452148 32.737038 8.359375 27.401456 6.435547 " transform="matrix(0.88,0,0,0.8,0,0)"/>
<path style="fill:none;stroke-width:2;stroke-linecap:round;stroke-linejoin:round;stroke:rgb(22.745098%,21.568627%,20.392157%);stroke-opacity:1;stroke-miterlimit:10;" d="M 35.253906 10.615234 C 35.253906 10.615234 38.134766 -1.542969 14.772727 1.484375 C 14.772727 1.484375 24.707031 15.473633 35.968572 11.098633 " transform="matrix(0.88,0,0,0.8,0,0)"/>
</g>
</svg>
