<svg width="18" height="20" viewBox="0 0 18 20" fill="none" xmlns="http://www.w3.org/2000/svg">
<path d="M10.6293 16.4031C11.4588 14.4166 10.0881 11.8761 7.56773 10.7287C5.04732 9.58125 2.33163 10.2615 1.50206 12.248C0.672496 14.2345 2.04319 16.775 4.5636 17.9224C7.08401 19.0699 9.7997 18.3896 10.6293 16.4031Z" stroke="white" stroke-miterlimit="10" stroke-linecap="round" stroke-linejoin="round"/>
<path d="M1.83435 12.1525C1.83435 12.1525 4.03241 14.7046 5.74906 14.4786C7.46571 14.2527 8.39121 14.9579 10.3542 16.9139" stroke="white" stroke-miterlimit="10" stroke-linecap="round" stroke-linejoin="round"/>
<path d="M7.11121 10.4418C7.13733 8.51309 8.91742 6.86489 11.3767 6.39342C14.0823 5.87519 16.5752 7.1844 16.9521 9.31576C17.329 11.4471 15.4407 13.5941 12.7351 14.1123C12.0596 14.2409 11.3954 14.2565 10.7759 14.1746" stroke="white" stroke-miterlimit="10" stroke-linecap="round" stroke-linejoin="round"/>
<path d="M16.7245 9.58849C16.7245 9.58849 13.5337 8.75465 12.2351 9.94307C10.9326 11.1315 9.91011 11.0691 7.23438 10.5899" stroke="white" stroke-miterlimit="10" stroke-linecap="round" stroke-linejoin="round"/>
<path d="M7.26003 7.96968C9.74949 7.49243 11.4879 5.51491 11.1428 3.55276C10.7978 1.59062 8.49994 0.386875 6.01049 0.864128C3.52103 1.34138 1.78265 3.3189 2.1277 5.28105C2.47275 7.24319 4.77058 8.44693 7.26003 7.96968Z" stroke="white" stroke-miterlimit="10" stroke-linecap="round" stroke-linejoin="round"/>
<path d="M10.9363 3.80609C10.9363 3.80609 7.99934 3.03848 6.80141 4.13339C5.60349 5.22829 4.54737 5.18543 2.08435 4.74513" stroke="white" stroke-miterlimit="10" stroke-linecap="round" stroke-linejoin="round"/>
</svg>
