<?xml version="1.0" encoding="UTF-8"?>
<svg xmlns="http://www.w3.org/2000/svg" xmlns:xlink="http://www.w3.org/1999/xlink" width="44px" height="44px" viewBox="0 0 44 44" version="1.1">
<g id="surface1">
<path style="fill:none;stroke-width:2;stroke-linecap:round;stroke-linejoin:round;stroke:rgb(22.745098%,21.568627%,20.392157%);stroke-opacity:1;stroke-miterlimit:10;" d="M 20.118608 46.996094 C 20.335582 44.017667 17.31179 41.363903 13.364702 41.072177 C 9.412997 40.785156 6.033736 42.96369 5.812145 45.946822 C 5.59517 48.925249 8.618963 51.579013 12.570668 51.870739 C 16.517756 52.157759 19.901634 49.979226 20.118608 46.996094 Z M 20.118608 46.996094 " transform="matrix(0.846154,0,0,0.830189,0,0)"/>
<path style="fill:none;stroke-width:2;stroke-linecap:round;stroke-linejoin:round;stroke:rgb(22.745098%,21.568627%,20.392157%);stroke-opacity:1;stroke-miterlimit:10;" d="M 6.232244 45.664506 C 6.232244 45.664506 10.387074 47.94185 12.612216 46.817294 C 14.841974 45.706854 16.416193 46.182085 19.980114 47.795987 " transform="matrix(0.846154,0,0,0.830189,0,0)"/>
<path style="fill:none;stroke-width:2;stroke-linecap:round;stroke-linejoin:round;stroke:rgb(22.745098%,21.568627%,20.392157%);stroke-opacity:1;stroke-miterlimit:10;" d="M 12.612216 40.921609 C 11.762784 38.404297 13.433949 35.397638 16.559304 33.619052 C 20.003196 31.64755 23.982599 32.165128 25.469105 34.762429 C 26.955611 37.35973 25.372159 41.053356 21.928267 43.024858 C 21.069602 43.51891 20.178622 43.848278 19.296875 44.036488 " transform="matrix(0.846154,0,0,0.830189,0,0)"/>
<path style="fill:none;stroke-width:2;stroke-linecap:round;stroke-linejoin:round;stroke:rgb(22.745098%,21.568627%,20.392157%);stroke-opacity:1;stroke-miterlimit:10;" d="M 25.293679 35.214134 C 25.293679 35.214134 20.575639 35.651722 19.352273 37.820845 C 18.133523 39.985263 16.711648 40.39462 12.852273 41.053356 " transform="matrix(0.846154,0,0,0.830189,0,0)"/>
<path style="fill:none;stroke-width:2;stroke-linecap:round;stroke-linejoin:round;stroke:rgb(22.745098%,21.568627%,20.392157%);stroke-opacity:1;stroke-miterlimit:10;" d="M 11.675071 37.63734 C 14.841974 35.830522 16.296165 32.428622 14.934304 30.038352 C 13.567827 27.648082 9.893111 27.177557 6.730824 28.98908 C 3.56392 30.795898 2.105114 34.197798 3.471591 36.588068 C 4.838068 38.978338 8.512784 39.448864 11.675071 37.63734 Z M 11.675071 37.63734 " transform="matrix(0.846154,0,0,0.830189,0,0)"/>
<path style="fill:none;stroke-width:2;stroke-linecap:round;stroke-linejoin:round;stroke:rgb(22.745098%,21.568627%,20.392157%);stroke-opacity:1;stroke-miterlimit:10;" d="M 14.777344 30.461825 C 14.777344 30.461825 10.433239 30.857067 9.311435 32.8568 C 8.175781 34.861239 6.726207 35.312944 3.17152 35.905806 " transform="matrix(0.846154,0,0,0.830189,0,0)"/>
<path style="fill:none;stroke-width:2;stroke-linecap:round;stroke-linejoin:round;stroke:rgb(22.745098%,21.568627%,20.392157%);stroke-opacity:1;stroke-miterlimit:10;" d="M 9.066761 23.145153 C 12.690696 22.759322 15.391335 20.223189 15.100497 17.48473 C 14.805043 14.750977 11.628906 12.850053 8.004972 13.235884 C 4.381037 13.62642 1.680398 16.162553 1.971236 18.896307 C 2.26669 21.634766 5.442827 23.535689 9.066761 23.145153 Z M 9.066761 23.145153 " transform="matrix(0.846154,0,0,0.830189,0,0)"/>
<path style="fill:none;stroke-width:2;stroke-linecap:round;stroke-linejoin:round;stroke:rgb(22.745098%,21.568627%,20.392157%);stroke-opacity:1;stroke-miterlimit:10;" d="M 14.777344 17.809393 C 14.777344 17.809393 10.64098 16.435458 8.803622 17.823509 C 6.966264 19.197443 5.461293 19.032759 1.962003 18.162287 " transform="matrix(0.846154,0,0,0.830189,0,0)"/>
<path style="fill:none;stroke-width:2;stroke-linecap:round;stroke-linejoin:round;stroke:rgb(22.745098%,21.568627%,20.392157%);stroke-opacity:1;stroke-miterlimit:10;" d="M 45.67081 47.033736 C 47.872869 44.125888 47.877486 40.427557 45.684659 38.761896 C 43.491832 37.100941 39.927912 38.112571 37.725852 41.015714 C 35.528409 43.923562 35.523793 47.626598 37.716619 49.287553 C 39.909446 50.948509 43.473366 49.941584 45.67081 47.033736 Z M 45.67081 47.033736 " transform="matrix(0.846154,0,0,0.830189,0,0)"/>
<path style="fill:none;stroke-width:2;stroke-linecap:round;stroke-linejoin:round;stroke:rgb(22.745098%,21.568627%,20.392157%);stroke-opacity:1;stroke-miterlimit:10;" d="M 45.712358 39.218306 C 45.712358 39.218306 41.871449 41.298029 41.617543 43.575373 C 41.363636 45.852717 40.200284 46.84082 37.171875 48.788796 " transform="matrix(0.846154,0,0,0.830189,0,0)"/>
<path style="fill:none;stroke-width:2;stroke-linecap:round;stroke-linejoin:round;stroke:rgb(22.745098%,21.568627%,20.392157%);stroke-opacity:1;stroke-miterlimit:10;" d="M 6.901634 38.691317 L 10.742543 41.250977 " transform="matrix(0.846154,0,0,0.830189,0,0)"/>
<path style="fill:none;stroke-width:2;stroke-linecap:round;stroke-linejoin:round;stroke:rgb(22.745098%,21.568627%,20.392157%);stroke-opacity:1;stroke-miterlimit:10;" d="M 20.058594 47.466619 L 25.039773 50.802646 L 42.01456 31.261719 C 46.049361 25.224876 44.719815 18.557528 38.681463 14.520419 L 38.076705 14.115767 C 32.038352 10.078658 23.79794 11.725497 19.772372 17.767045 L 12.972301 27.939808 " transform="matrix(0.846154,0,0,0.830189,0,0)"/>
<path style="fill:none;stroke-width:2;stroke-linecap:round;stroke-linejoin:round;stroke:rgb(22.745098%,21.568627%,20.392157%);stroke-opacity:1;stroke-miterlimit:10;" d="M 6.901634 38.691317 L 10.742543 41.250977 " transform="matrix(0.846154,0,0,0.830189,0,0)"/>
<path style="fill:none;stroke-width:2;stroke-linecap:round;stroke-linejoin:round;stroke:rgb(22.745098%,21.568627%,20.392157%);stroke-opacity:1;stroke-miterlimit:10;" d="M 20.543324 47.795987 L 24.305753 50.303888 L 35.269886 33.882546 C 38.51527 29.022017 37.194957 22.397017 32.333807 19.150391 L 31.839844 18.821023 C 26.978693 15.579102 20.354048 16.896573 17.108665 21.761808 L 12.972301 27.953924 " transform="matrix(0.846154,0,0,0.830189,0,0)"/>
<path style="fill:none;stroke-width:2;stroke-linecap:round;stroke-linejoin:round;stroke:rgb(22.745098%,21.568627%,20.392157%);stroke-opacity:1;stroke-miterlimit:10;" d="M 40.892756 16.10609 C 40.892756 16.10609 49.142401 9.067028 50.079545 6.173295 C 51.012074 3.279563 48.722301 1.759766 48.722301 1.759766 C 48.722301 1.759766 46.603338 0.0329368 44.115057 1.783292 C 41.631392 3.533647 37.370384 13.508789 37.370384 13.508789 " transform="matrix(0.846154,0,0,0.830189,0,0)"/>
</g>
</svg>
